# xmcd
#
# Track frame offsets: 
#        150
#        1344
#        35755
#        54660
#        97920
#        139538
#        170650
#
# Disc length: 3166 seconds
#
# Revision: 0
# Processed by: cddbd v1.5.2PL0 Copyright (c) Steve Scherf et al.
# Submitted via: ExactAudioCopy v0.99pb5
#
DISCID=540c5c07
DTITLE=Johnny Winter  - Live Bootleg Series, Vol. 6 (2010)  FLAC
DYEAR=1900
DGENRE=
TTITLE0=Introduction
TTITLE1=Sen-Sa-Shun
TTITLE2=Johnny Guitar
TTITLE3=Blackjack
TTITLE4=She Likes To Boogie Real Low
TTITLE5=White Line Blues
TTITLE6=It's My Own Fault
EXTD=
EXTT0=
EXTT1=
EXTT2=
EXTT3=
EXTT4=
EXTT5=
EXTT6=
PLAYORDER=
